<!--?xml version="1.0" encoding="utf-8"?-->
<!-- Generator: Adobe Illustrator 19.1.1, SVG Export Plug-In . SVG Version: 6.00 Build 0)  -->
<svg version="1.1" id="_x31_0" xmlns="http://www.w3.org/2000/svg" xmlns:xlink="http://www.w3.org/1999/xlink" x="0px" y="0px" viewBox="0 0 512 512" style="width: 256px; height: 256px; opacity: 1;" xml:space="preserve">
<style type="text/css">
	.st0{fill:#374149;}
</style>
<g>
	<path class="st0" d="M180.699,306.414c2.801,0,5.488-0.805,7.797-2.305l59.578,29.367c4.996,2.462,10.855,2.462,15.851,0
		l59.558-29.374c2.313,1.5,5.008,2.312,7.813,2.312c7.942,0,14.402-6.469,14.402-14.406c0-7.945-6.461-14.406-14.402-14.406
		c-6.778,0-12.546,4.781-14.004,11.226l-19.156,10.191l-16.942,8.855l29.446-43.515c8.262,0.508,15.222-6.164,15.222-14.383
		c0-7.937-6.461-14.398-14.402-14.398c-7.942,0-14.402,6.462-14.402,14.398c0,1.406,0.211,2.79,0.629,4.141l-18.254,26.813
		l-15.187,22.078v-53.953c3.804-2.664,6.156-7.062,6.156-11.781c0-7.938-6.465-14.406-14.402-14.406
		c-7.946,0-14.402,6.469-14.402,14.406c0,4.718,2.348,9.117,6.156,11.781v29.488l-0.133,24.504l-33.316-48.93
		c0.617-1.984,0.785-4.023,0.496-6.102c-0.805-5.859-5.418-10.922-11.211-12.125c-9.266-1.922-17.461,5.149-17.461,14.086
		c0,8.219,6.746,14.962,15.226,14.383l15.742,23.27l13.614,20.375l-35.996-19.13c-1.442-6.468-7.223-11.273-14.016-11.273
		c-7.946,0-14.406,6.461-14.406,14.406C166.293,299.945,172.754,306.414,180.699,306.414z" style="fill: rgb(75, 75, 75);"></path>
	<path class="st0" d="M117.086,465.832l-0.734,31.718l-0.038,1.324h0.007l-0.003,0.157l10.93-0.078c3.386,0,6.773,0,10.242,0.078
		c3.462,0,7.004,0.078,10.547,0.078c6.848,0,15.934-0.156,24.863-1.312c1.726-0.226,3.344-0.695,5.035-1.008
		c1.07-0.199,2.133-0.406,3.187-0.641c3.766-0.824,7.43-1.832,11.012-3.035c0.278-0.094,0.562-0.183,0.84-0.281
		c20.504-7.066,37.855-19.699,51.668-33.125c0.078-0.074,0.156-0.153,0.234-0.227c1.785-1.742,3.535-3.473,5.199-5.222
		c1.988-2.062,3.894-4.11,5.668-6.098c14.859,17.023,35.886,35.274,62.098,44.434c0.262,0.09,0.527,0.176,0.793,0.27
		c3.582,1.218,7.254,2.25,11.027,3.098c1.012,0.226,2.027,0.434,3.051,0.629c1.706,0.332,3.339,0.809,5.082,1.051
		c9.16,1.312,18.473,1.468,25.555,1.468c3.621,0,7.16-0.078,10.702-0.078c3.466-0.078,6.852-0.078,10.238-0.078l10.438,0.078
		l0.332,0.008v-0.008h0.16c0,0-0.382-15.625-0.535-19.477c-0.07-4.114-0.187-8.222-0.269-12.332l0.011-1.738l30.649,10.539
		l0.71,0.25v-0.004l0.153,0.05l2.382-7.546c1.309-4.078,2.696-8.234,4.082-12.391c3.461-10.398,7.156-21.25,9.313-32.258
		c7.058-34.828-5.524-68.344-19.758-93.058c-0.515-0.91-1.031-1.832-1.546-2.707c26.629-11.398,58.106-31.492,73.343-65.508
		c4.391-9.851,7.93-20.172,11.395-30.179c1.538-4.305,3.003-8.539,4.542-12.782l2.309-6.226l-5.848-3.164
		c-7.39-3.993-16.094-6.078-24.484-8.157c-0.562-0.14-1.18-0.281-1.754-0.422l-0.149-0.07l19.402-25.664l0.266-0.344l-0.004-0.003
		l0.098-0.13l-6.39-4.625c-3.539-2.453-7.082-5.078-10.621-7.695c-9.161-6.922-18.703-14.008-28.946-19.633
		c-16.246-8.93-35.18-13.469-56.352-13.469c-12.042,0-24.89,1.473-38.378,4.34c-0.477,0.094-0.938,0.164-1.418,0.262
		c-2.546-26.711-11.938-67.117-43.266-92.359c-7.539-6.086-15.473-11.859-23.168-17.477c-3.312-2.461-6.621-4.844-9.934-7.313
		l-6.098-4.562l-0.16-0.121v0.004l-0.129-0.094c0,0-8.855,12.781-11.008,15.938c-1.894,2.812-3.851,5.636-5.801,8.441
		c-0.687,0.938-1.289,1.902-2.008,2.825l-18.308-26.418l-0.504-0.73l-0.094-0.133l-6.391,4.703
		c-3.538,2.617-7.156,5.226-10.777,7.774c-10.157,7.156-20.629,14.546-29.559,23.398c-23.699,23.699-32.671,56.042-35.679,82.629
		c-0.133,1.129-0.324,2.336-0.438,3.434c-13.465-3-26.469-4.539-38.863-4.539c-12.164,0-23.786,1.469-34.562,4.469
		c-17.629,4.922-31.254,14.164-42.649,22.938L24.711,167.93c-0.77,0.539-1.387,1.008-2.004,1.39c-2,1.313-5.078,3.234-5.848,7.469
		c-0.847,4.305,1.77,7.844,2.691,9.164c2.774,3.766,5.696,7.539,8.622,11.234c0.977,1.282,1.906,2.488,2.863,3.707
		c0.23,0.344,0.477,0.633,0.707,1.004l-30.485,9.008l-1.106,0.32l0.004,0.008L0,211.281l2.539,7.539
		c1.386,4.156,2.691,8.461,4.078,12.782c3.696,11.93,7.469,24.242,13.246,35.562c15.289,30.062,43.516,48.629,68.09,59.754
		c1.028,0.473,2.11,1.02,3.11,1.461c-15.55,25.938-29.707,62.27-20.242,100.215c2.387,9.617,5.234,19.172,7.93,28.484
		c1.23,4.078,2.465,8.234,3.617,12.313l2.054,7.164l0.126,0.457l0.007-0.004l0.043,0.157c0,0,15.09-5.234,18.786-6.618
		c3.402-1.206,6.828-2.394,10.258-3.57C114.805,466.606,115.89,466.176,117.086,465.832z M106.386,435.121
		c-5.238-18.465-8.003-35.242-3.003-54.332c6.843-26.23,23.218-53.754,44.59-70.695c0.015-0.016,0.035-0.031,0.05-0.047l0.012-0.007
		c-0.156,0-0.156-0.078,0-0.149c-27.867-2.086-56.89-13.782-78.367-31.867c-14.582-12.297-22.043-27.016-27.946-44.68
		c-0.046-0.148-0.102-0.297-0.148-0.441c13.93-4.059,28.511-7.493,42.129-12.246c0.781-0.258,1.614-0.477,2.382-0.742l-0.031-0.042
		c0.055-0.02,0.11-0.035,0.161-0.051c-6-7.938-12.082-15.859-18.09-23.789c-2.234-2.922-8.008-8.008-8.851-11.625
		c-0.77-3.078,3.156-4.539,6.082-6.696c15.782-11.703,35.641-15.554,54.965-14.781c22.106,0.886,46.336,6.633,65.524,18.183
		c0.859,0.528,1.777,1.012,2.606,1.559c-0.004-0.016-0.004-0.028-0.008-0.043c0.004,0.004,0.004,0.004,0.004,0.004
		c-0.074-0.149,0.004-0.149,0.16,0c-6.164-26.633-3.622-57.734,6.691-83.133c7.18-17.562,18.832-29.137,33.672-40.145
		c0.121-0.09,0.242-0.183,0.363-0.27c8.168,11.859,16.035,24.558,24.738,36.008c0.515,0.703,1.012,1.465,1.531,2.152l0.027-0.042
		c0.035,0.042,0.066,0.09,0.102,0.133c8.707-12.566,17.344-25.055,26.047-37.547c0.148-0.211,0.289-0.418,0.438-0.629
		c15.168,11.32,26.863,23.019,34.098,41.027c9.898,24.516,13.21,55.641,6.73,81.418c-0.074,0.293-0.114,0.605-0.192,0.894
		c0.008-0.008,0.016-0.008,0.02-0.016h0.062c0,0.078,0,0.078,0,0.149c22.863-13.852,52.195-21.094,78.984-19.774
		c18.891,0.859,33.742,7.683,48.813,18.09c0.898,0.625,1.774,1.192,2.684,1.852c-8.762,11.515-18.426,22.918-26.535,34.801
		c-0.485,0.687-1.039,1.374-1.512,2.062c0.016,0.008,0.031,0.011,0.05,0.015c-0.031,0.047-0.066,0.094-0.098,0.141
		c14.149,4.226,28.301,8.465,42.45,12.758c0.785,0.25,1.562,0.469,2.347,0.719c-6.386,17.55-13.695,32.477-28.402,44.875
		c-21.016,17.702-50.653,30.25-78.133,31.554c0.034,0.039-0.047,0.015-0.035,0.039c0,0-0.012,0-0.016,0
		c0,0.004,0.004,0.008,0.004,0.008c0.023,0.058,0.058,0.117-0.11,0.117c21.094,17.625,37.492,43.953,44.574,70.438
		c4.871,18.305,2.84,34.578-2.426,52.102c-0.23,0.754-0.414,1.473-0.66,2.242c-14.547-4.926-29.325-10.93-44.028-15.008
		c0.379,15.277,0.758,30.641,0.989,45.926c0,0.187,0.008,0.379,0.008,0.566c-19.399-0.152-36.254-3-52.958-13.851
		c-22.942-14.938-42.882-38.57-53.195-63.969c-10.316,25.71-30.714,49.726-54.043,64.507c-16.43,10.438-33.015,13.145-51.969,13.313
		c-0.05,0-0.098,0-0.148,0c0.367-14.477,1.5-29.481,1.043-43.949c-0.012-0.786,0.031-1.614,0.011-2.395l-0.05,0.016
		c-0.004-0.054,0-0.11-0.004-0.164c-14.168,4.969-28.344,10.008-42.586,14.906C107.446,434.75,106.926,434.945,106.386,435.121z" style="fill: rgb(75, 75, 75);"></path>
</g>
</svg>
